<?xml version="1.0" standalone="no"?>
<!DOCTYPE svg PUBLIC "-//W3C//DTD SVG 20010904//EN"
 "http://www.w3.org/TR/2001/REC-SVG-20010904/DTD/svg10.dtd">
<svg version="1.0" xmlns="http://www.w3.org/2000/svg"
 width="70.000000pt" height="70.000000pt" viewBox="0 0 70.000000 70.000000"
 preserveAspectRatio="xMidYMid meet">
<metadata>
Created by potrace 1.11, written by Peter Selinger 2001-2013
</metadata>
<g transform="translate(0.000000,70.000000) scale(0.100000,-0.100000)"
fill="#000000" stroke="none">
<path d="M211 693 c-1 -7 -10 -13 -21 -13 -15 0 -20 -7 -20 -27 0 -22 -2 -25
-10 -13 -5 8 -10 11 -10 5 -1 -5 -6 1 -11 15 -8 19 -12 22 -19 10 -5 -8 -6
-18 -4 -22 3 -4 0 -8 -5 -8 -18 0 -12 -21 11 -41 19 -17 19 -19 3 -19 -10 0
-27 8 -37 17 -17 15 -20 15 -28 3 -14 -21 -12 -32 3 -24 8 5 8 2 -2 -9 -9 -11
-10 -17 -2 -17 6 0 11 -7 11 -15 0 -8 5 -15 11 -15 5 0 7 -5 4 -10 -4 -7 -14
-3 -25 10 -21 25 -27 25 -33 3 -5 -24 23 -73 42 -73 12 0 12 -3 3 -12 -10 -10
-17 -10 -32 0 -28 17 -39 15 -37 -7 0 -11 5 -17 9 -15 4 3 8 0 8 -5 0 -18 35
-48 50 -43 8 3 10 0 6 -7 -5 -8 -20 -9 -44 -5 l-37 7 26 -34 c26 -34 69 -51
69 -28 0 7 2 10 5 7 12 -12 -9 -38 -31 -38 -27 0 -30 -8 -10 -35 15 -21 53
-30 71 -15 8 7 12 5 12 -5 0 -7 -3 -14 -6 -13 -35 3 -49 -4 -44 -22 3 -11 14
-20 25 -20 10 0 17 -4 14 -9 -7 -11 14 -20 32 -14 6 3 9 10 5 16 -3 7 -3 9 2
5 4 -4 14 -3 22 3 23 20 14 -1 -11 -24 -24 -22 -24 -23 -5 -35 10 -7 32 -12
49 -12 23 0 28 3 23 17 -4 10 -2 14 4 10 6 -4 13 -2 15 5 6 16 -50 98 -64 95
-20 -4 -66 83 -79 152 -9 44 -3 95 10 86 4 -2 7 13 7 34 -1 28 3 38 14 37 8
-1 14 7 14 17 -1 9 2 17 8 17 5 0 7 4 3 9 -3 6 3 15 14 21 12 6 18 16 15 25
-4 9 0 15 10 15 10 0 13 5 9 17 -5 12 -3 14 8 8 11 -7 12 -6 3 6 -6 8 -14 21
-17 29 -3 9 -6 10 -6 3z"/>
<path d="M440 680 c-10 -6 -8 -12 7 -25 12 -10 19 -27 17 -41 -1 -13 2 -22 6
-19 5 3 11 -4 15 -15 7 -23 52 -56 62 -46 3 3 12 1 18 -4 19 -16 44 20 38 53
-5 24 -19 33 -46 28 -5 -1 -6 3 -2 9 9 14 -13 50 -30 50 -9 0 -15 -10 -15 -22
-1 -22 -1 -22 -15 3 -16 30 -36 41 -55 29z m117 -95 c0 -8 -4 -12 -9 -9 -5 3
-6 10 -3 15 9 13 12 11 12 -6z"/>
<path d="M265 559 c-19 -9 -40 -23 -47 -30 -64 -67 -63 -174 3 -240 10 -10 23
-19 28 -19 5 0 11 -5 13 -11 2 -7 27 -11 63 -11 33 0 66 -5 74 -11 12 -9 13
-9 7 1 -6 11 17 18 46 13 6 -1 8 8 9 56 0 13 5 25 10 29 6 3 5 12 -3 22 -11
13 -11 14 0 8 10 -6 13 -3 10 10 -3 16 -14 19 -71 22 -70 3 -77 0 -52 -24 8
-9 15 -30 15 -49 0 -48 -42 -57 -80 -16 -18 20 -23 36 -22 81 1 63 8 90 28
106 10 8 13 12 6 9 -11 -6 -12 -3 -3 14 7 11 14 21 17 21 3 0 2 -6 -2 -12 -5
-9 -2 -8 9 1 24 19 53 2 90 -51 32 -45 47 -41 49 13 2 53 -29 98 -47 69 -4 -7
-13 -6 -27 1 -32 17 -85 16 -123 -2z"/>
<path d="M597 532 c-9 -10 -14 -23 -10 -27 5 -5 0 -3 -10 5 -23 17 -55 20 -60
6 -5 -14 18 -37 28 -28 3 4 4 -6 1 -22 -3 -16 -1 -38 5 -48 8 -15 7 -24 -6
-38 -11 -12 -13 -20 -5 -25 5 -3 8 -10 6 -14 -10 -16 35 -52 56 -45 15 4 18 3
13 -6 -6 -9 -4 -11 6 -5 30 17 39 28 32 38 -9 15 -12 68 -3 62 4 -2 6 8 4 23
-1 15 -2 33 -3 40 -1 16 -16 15 -35 -3 -17 -17 -36 -20 -36 -4 0 5 4 8 8 5 5
-3 21 6 36 19 16 14 23 26 16 30 -6 3 -8 10 -5 14 2 5 -1 16 -8 25 -12 16 -14
16 -30 -2z m-17 -152 c0 -6 11 -8 25 -6 31 6 32 -5 4 -22 -12 -8 -18 -9 -14
-3 5 10 -7 15 -27 12 -5 0 -8 6 -8 14 0 8 5 15 10 15 6 0 10 -5 10 -10z"/>
<path d="M524 303 c-8 -14 -7 -27 5 -54 13 -29 21 -35 43 -34 15 1 25 -1 23
-4 -2 -4 6 -8 18 -8 15 -2 18 0 8 6 -11 7 -11 9 0 14 11 4 11 6 1 6 -10 1 -10
6 -2 21 10 18 8 20 -19 20 -20 0 -35 8 -48 25 -17 23 -19 24 -29 8z"/>
<path d="M494 256 c-14 -15 -23 -86 -12 -86 5 0 18 -9 30 -19 19 -19 22 -19
42 -4 28 21 29 53 1 53 -14 0 -25 11 -35 34 -11 26 -18 31 -26 22z"/>
<path d="M421 177 c-16 -31 -18 -43 -8 -46 6 -2 18 -12 24 -21 7 -10 25 -20
41 -22 25 -4 28 -1 24 19 -2 13 -8 23 -12 23 -11 0 -33 57 -26 68 3 6 -1 12
-8 15 -10 4 -22 -8 -35 -36z"/>
<path d="M310 104 c0 -8 5 -12 10 -9 6 3 13 -1 16 -9 7 -18 34 -22 34 -6 0 6
-7 10 -16 10 -8 0 -13 4 -10 9 3 5 -1 12 -10 15 -22 9 -24 8 -24 -10z"/>
</g>
</svg>
